<?xml version="1.0" encoding="utf-8"?>
<!-- Generator: Adobe Illustrator 15.1.0, SVG Export Plug-In . SVG Version: 6.00 Build 0)  -->
<!DOCTYPE svg PUBLIC "-//W3C//DTD SVG 1.1//EN" "http://www.w3.org/Graphics/SVG/1.1/DTD/svg11.dtd">
<svg version="1.1" id="Layer_1" xmlns="http://www.w3.org/2000/svg" xmlns:xlink="http://www.w3.org/1999/xlink" x="0px" y="0px"
	 width="105px" height="105px" viewBox="0 0 105 105" enable-background="new 0 0 105 105" xml:space="preserve">
<g>
	<path fill="none" d="M34.389,59.855c-0.664,0.938-0.996,1.963-0.996,3.076c0,1.406,0.42,2.574,1.26,3.502s1.807,1.391,2.9,1.391
		c1.484,0,3.438-0.977,5.859-2.93V54.67c-2.949,1.172-4.854,2.003-5.713,2.49C36.156,58.021,35.053,58.918,34.389,59.855z"/>
	<path fill="none" d="M52.093,53.969c-0.137-0.645-0.352-1.089-0.645-1.334c-0.293-0.244-0.693-0.365-1.201-0.365
		c-0.192,0-1.003,0.266-2.001,0.62v8.46c0,2.56,0.049,4.127,0.146,4.703s0.26,0.962,0.484,1.156
		c0.224,0.195,0.482,0.293,0.775,0.293c0.313,0,0.586-0.068,0.82-0.205c0.111-0.068,0.854-0.721,1.884-1.645v-6
		C52.356,56.703,52.269,54.809,52.093,53.969z"/>
	<path fill="#FFFFFF" d="M54.671,40.316c0.839,0,1.553-0.293,2.139-0.879s0.879-1.289,0.879-2.109c0-0.839-0.293-1.553-0.879-2.139
		s-1.3-0.879-2.139-0.879c-0.82,0-1.523,0.293-2.109,0.879s-0.879,1.299-0.879,2.139c0,0.82,0.293,1.523,0.879,2.109
		S53.851,40.316,54.671,40.316z"/>
</g>
<path fill="#FFFFFF" d="M43.385,66.844"/>
<path fill="none" stroke="#FFFFFF" stroke-width="0.1" stroke-miterlimit="10" d="M48.582,52.875"/>
<path fill="none" stroke="#FFFFFF" stroke-width="0.1" stroke-miterlimit="10" d="M43.188,54.854"/>
<path fill="none" stroke="#FFFFFF" stroke-width="0.1" stroke-miterlimit="10" d="M48.979,52.896"/>
<path fill="none" stroke="#FFFFFF" stroke-width="0.1" stroke-miterlimit="10" d="M42.791,55.959"/>
<path fill="#FFFFFF" d="M60.88,57.863l0.041-0.045c-0.034,0.034-0.087,0.084-0.135,0.131l-3.549,3.243V47.775l-8.958,3.311
	c-0.046-1.965-0.217-3.31-0.514-4.02c-0.547-1.289-1.396-2.236-2.549-2.841c-1.523-0.801-3.477-1.201-5.859-1.201
	c-3.105,0-5.518,0.703-7.236,2.109c-1.719,1.406-2.578,2.949-2.578,4.628c0,0.879,0.23,1.572,0.689,2.08
	c0.458,0.509,1.049,0.762,1.771,0.762c0.742,0,1.344-0.244,1.803-0.732c0.458-0.487,0.688-1.182,0.688-2.08l-0.059-1.699
	c0-0.859,0.371-1.621,1.113-2.285c0.723-0.664,1.699-0.996,2.93-0.996c1.621,0,2.857,0.498,3.707,1.494
	c0.85,0.996,1.273,2.832,1.273,5.508v1.055c-4.609,1.681-7.905,3.105-9.887,4.277c-1.982,1.172-3.375,2.422-4.176,3.75
	c-0.586,0.957-0.879,2.091-0.879,3.398c0,2.07,0.602,3.74,1.803,5.01c1.201,1.271,2.729,1.904,4.584,1.904
	c1.191,0,2.314-0.244,3.369-0.732c0.691-0.326,2.381-1.277,5.057-3.334l5.314-5.391l3.063-3.125l-3.462,2.387v-6.875l-4.834,1.832
	v8.375c-2.422,1.953-4.375,3.48-5.859,3.48c-1.094,0-2.061-0.463-2.9-1.391s-1.26-2.096-1.26-3.502c0-1.113,0.332-2.139,0.996-3.076
	s1.768-1.835,3.311-2.695c0.859-0.487,2.764-1.318,5.713-2.49l4.834-1.78c0.998-0.354,1.809-0.62,2.001-0.62
	c0.508,0,0.908,0.121,1.201,0.365c0.293,0.245,0.508,0.689,0.645,1.334c0.176,0.84,0.264,2.734,0.264,5.684v6
	c-0.94,1.066-1.772,1.576-1.884,1.645c-0.234,0.137-0.508,0.205-0.82,0.205c-0.293,0-0.552-0.098-0.775-0.293
	c-0.225-0.194-0.387-0.58-0.484-1.156c-0.064-0.381-0.107-1.208-0.129-2.459l-4.709,4.702c0.127,0.849,0.387,1.423,0.783,1.886
	c0.566,0.664,1.328,0.996,2.285,0.996c1.844,0,3.771-1.27,5.78-3.776v11.337c0,2.831-0.107,4.672-0.322,5.521
	c-0.216,0.85-0.547,1.455-0.996,1.816c-0.45,0.361-0.908,0.543-1.377,0.543c-0.645,0-1.44-0.426-2.388-1.275
	s-1.586-1.343-1.919-1.479c-0.527-0.254-1.044-0.381-1.553-0.381c-0.645,0-1.206,0.244-1.685,0.732
	c-0.479,0.487-0.718,1.073-0.718,1.758c0,0.684,0.43,1.348,1.289,1.992c0.86,0.645,2.179,0.967,3.955,0.967
	c3.124,0,5.664-1.113,7.617-3.34c1.952-2.227,2.93-5.636,2.93-10.225V61.998l3.949-4.414L60.88,57.863z"/>
<path fill="#FFFFFF" d="M51.037,1.411c-22.271,0-41.219,14.196-48.309,34.029C10.073,17.803,27.748,5.368,48.4,5.368
	c27.232,0,49.31,21.62,49.31,48.291c0,26.67-22.077,48.291-49.31,48.291c-13.082,0-24.965-4.998-33.792-13.137
	C23.903,98.189,36.79,104,51.037,104c28.329,0,51.294-22.965,51.294-51.293C102.331,24.376,79.366,1.411,51.037,1.411z"/>
</svg>
