<?xml version="1.0" encoding="utf-8"?>
<!-- Generator: Adobe Illustrator 15.1.0, SVG Export Plug-In . SVG Version: 6.00 Build 0)  -->
<!DOCTYPE svg PUBLIC "-//W3C//DTD SVG 1.1//EN" "http://www.w3.org/Graphics/SVG/1.1/DTD/svg11.dtd">
<svg version="1.1" id="Layer_1" xmlns="http://www.w3.org/2000/svg" xmlns:xlink="http://www.w3.org/1999/xlink" x="0px" y="0px"
	 width="220.181px" height="54px" viewBox="0 0 220.181 54" enable-background="new 0 0 220.181 54" xml:space="preserve">
<g>
	<g>
		<polygon fill="#FFFFFF" points="0,7.987 8.328,7.987 8.328,38.325 23.75,38.325 23.75,46.014 0,46.014 		"/>
		<g>
			<path fill="#FFFFFF" d="M27.431,20.232h8.006v25.77h-8.006V20.232z M31.433,7.422c2.565,0,4.646,2.081,4.646,4.646
				c0,2.563-2.081,4.638-4.646,4.638c-2.561,0-4.642-2.075-4.642-4.638C26.791,9.503,28.872,7.422,31.433,7.422"/>
		</g>
		<polygon fill="#FFFFFF" points="68.904,7.987 76.904,7.987 76.904,30.712 85.974,20.22 95.784,20.22 85.286,32.151 95.564,46.014 
			85.506,46.014 77.008,33.272 76.904,33.272 76.904,46.014 68.904,46.014 		"/>
		<path fill="#FFFFFF" d="M39.865,20.238h7.684v3.521h0.108c1.065-2.025,3.682-4.162,7.579-4.162c8.112,0,9.607,5.339,9.607,12.276
			v14.13h-8.006V33.474c0-2.989-0.056-6.831-4.166-6.831c-4.162,0-4.8,3.255-4.8,6.617v12.742h-8.006V20.238z"/>
		<path fill="#FFFFFF" d="M112.635,30.122c0.051-2.67-2.03-4.909-4.914-4.909c-3.521,0-5.441,2.401-5.653,4.909H112.635z
			 M119.413,41.539c-2.565,3.258-6.778,5.127-10.941,5.127c-8.006,0-14.411-5.337-14.411-13.613c0-8.268,6.405-13.607,14.411-13.607
			c7.474,0,12.168,5.339,12.168,13.607v2.509h-18.573c0.636,3.045,2.937,5.018,6.029,5.018c2.619,0,4.376-1.331,5.711-3.146
			L119.413,41.539z"/>
		<path fill="#FFFFFF" d="M137.315,26.463c-4,0-6.403,2.67-6.403,6.565c0,3.897,2.403,6.566,6.403,6.566
			c4.006,0,6.406-2.669,6.406-6.566C143.722,29.134,141.321,26.463,137.315,26.463 M151.09,46h-7.368v-3.421h-0.104
			c-1.231,1.871-4.324,4.059-7.954,4.059c-7.688,0-12.758-5.55-12.758-13.394c0-7.208,4.483-13.823,11.848-13.823
			c3.313,0,6.407,0.903,8.223,3.412h0.104V7.987h8.01V46z"/>
	</g>
	<path fill="#FFFFFF" d="M209.1,0h-46.019c-2.198,0-3.984,1.744-3.984,3.894v46.209c0,2.15,1.786,3.896,3.984,3.896H209.1
		c2.203,0,3.995-1.746,3.995-3.896V3.894C213.095,1.744,211.303,0,209.1,0z M175.11,46.014h-8.012v-25.77h8.012V46.014z
		 M171.104,16.723c-2.566,0-4.642-2.081-4.642-4.644c0-2.565,2.075-4.646,4.642-4.646c2.561,0,4.642,2.081,4.642,4.646
		C175.746,14.642,173.665,16.723,171.104,16.723z M205.111,46.014h-8.006V33.481c0-2.989-0.052-6.833-4.162-6.833
		c-4.168,0-4.804,3.258-4.804,6.618v12.747h-8.006v-25.77h7.683v3.524h0.109c1.069-2.027,3.683-4.162,7.578-4.162
		c8.11,0,9.607,5.335,9.607,12.274V46.014z"/>
</g>
</svg>
